<svg width="417" height="245" viewBox="0 0 417 245" fill="none" xmlns="http://www.w3.org/2000/svg">
            <g clip-path="url(#clip0)">
            <path opacity="0.1" d="M405.833 227.571C405.441 227.857 405.039 228.133 404.633 228.405C403.135 229.409 401.572 230.312 399.953 231.107C391.45 235.35 380.974 237.421 370.767 238.828C347.877 241.99 324.505 242.603 301.231 243.205C238.353 244.841 175.309 246.469 112.591 242.705C87.8123 241.218 62.4793 238.715 40.0206 231.099C36.8043 230.009 33.6484 228.807 30.5529 227.494C24.2967 224.829 18.2869 221.59 13.2885 217.732C8.57637 214.105 4.78494 209.934 2.50862 205.198C-2.23973 195.326 0.272184 184.24 5.69111 174.568C7.95618 170.643 10.5 166.885 13.303 163.325C17.4786 157.878 22.0856 152.601 26.2975 147.161C41.2748 127.788 51.047 103.319 37.2224 83.4741C33.2352 77.7731 27.5046 72.7683 24.2677 66.817C20.1319 59.2011 20.4545 50.7475 21.7703 42.5187C21.937 41.4815 22.1328 40.4515 22.3104 39.4216C24.5686 27.247 28.7732 14.1259 41.7895 6.52448C55.3096 -1.3743 74.5024 -0.975371 91.2884 1.84977C117.386 6.24523 141.462 15.4242 165.772 23.7147C190.083 32.0051 215.547 39.5775 242.283 40.3971C265.887 41.1224 293.423 35.7297 309.089 21.7345C324.313 8.14195 352.912 7.10837 373.537 15.319C387.673 20.9548 398.239 31.1057 402.694 42.5187C403.594 44.8038 404.244 47.1798 404.633 49.6051C404.994 51.8135 405.116 54.0545 404.995 56.289C404.934 57.3769 404.814 58.4831 404.633 59.5529C401.189 82.0851 376.393 99.8555 361.321 119.983C353.956 129.815 348.755 141.623 353.818 152.224C361.542 168.377 388.405 174.118 404.633 186.144C407.665 188.308 410.353 190.917 412.607 193.883C420.455 204.589 417.551 219.037 405.833 227.571Z" fill="#6C63FF"/>
            <path opacity="0.1" d="M194.897 239.306C248.875 239.306 292.633 237.819 292.633 235.984C292.633 234.15 248.875 232.662 194.897 232.662C140.918 232.662 97.1601 234.15 97.1601 235.984C97.1601 237.819 140.918 239.306 194.897 239.306Z" fill="#6C63FF"/>
            <path d="M272.548 233.772C272.548 233.772 293.572 207.127 291.944 180.642C291.259 169.523 293.996 158.454 300.111 149.145C303.019 144.734 306.327 140.601 309.992 136.796" stroke="#535461" stroke-width="2" stroke-miterlimit="10"/>
            <path d="M309.06 120.096C307.574 123.802 309.963 137.235 309.963 137.235C309.963 137.235 320.978 129.187 322.464 125.485C322.818 124.604 322.995 123.661 322.984 122.712C322.974 121.763 322.777 120.825 322.405 119.951C322.032 119.078 321.491 118.287 320.813 117.623C320.135 116.959 319.332 116.435 318.452 116.081C317.571 115.727 316.629 115.55 315.681 115.56C314.732 115.571 313.794 115.768 312.921 116.141C312.048 116.513 311.258 117.055 310.594 117.733C309.93 118.412 309.406 119.214 309.053 120.096H309.06Z" fill="#6C63FF"/>
            <path d="M289.744 136.158C290.509 140.075 299.813 150.051 299.813 150.051C299.813 150.051 304.689 137.307 303.924 133.391C303.538 131.528 302.433 129.894 300.85 128.841C299.267 127.787 297.333 127.401 295.468 127.765C293.602 128.129 291.955 129.214 290.883 130.786C289.812 132.357 289.403 134.287 289.744 136.158Z" fill="#6C63FF"/>
            <path d="M276.155 171.409C278.79 174.404 291.854 178.299 291.854 178.299C291.854 178.299 289.632 164.837 286.997 161.842C286.37 161.129 285.609 160.548 284.758 160.129C283.906 159.711 282.981 159.465 282.035 159.405C281.088 159.345 280.139 159.471 279.242 159.778C278.344 160.085 277.516 160.565 276.804 161.192C276.092 161.819 275.511 162.581 275.093 163.432C274.675 164.284 274.429 165.21 274.368 166.157C274.308 167.104 274.435 168.054 274.742 168.952C275.048 169.849 275.528 170.678 276.155 171.391V171.409Z" fill="#6C63FF"/>
            <path d="M271.871 200.396C273.962 203.794 286.181 209.862 286.181 209.862C286.181 209.862 286.264 196.215 284.173 192.817C283.679 192.001 283.029 191.291 282.26 190.728C281.49 190.165 280.617 189.76 279.691 189.536C278.764 189.311 277.803 189.273 276.861 189.423C275.92 189.572 275.018 189.907 274.206 190.407C273.394 190.907 272.69 191.562 272.133 192.336C271.575 193.11 271.177 193.986 270.96 194.915C270.743 195.844 270.711 196.806 270.868 197.747C271.024 198.687 271.365 199.588 271.871 200.396Z" fill="#6C63FF"/>
            <path d="M313.616 156.427C309.923 157.939 296.482 155.64 296.482 155.64C296.482 155.64 304.457 144.564 308.139 143.052C309.905 142.36 311.873 142.39 313.617 143.136C315.361 143.883 316.741 145.285 317.46 147.041C318.179 148.797 318.179 150.766 317.46 152.522C316.741 154.278 315.36 155.681 313.616 156.427Z" fill="#6C63FF"/>
            <path d="M308.179 190.263C304.192 190.604 292.064 184.385 292.064 184.385C292.064 184.385 302.978 176.203 306.951 175.862C307.904 175.765 308.868 175.858 309.786 176.137C310.703 176.416 311.556 176.875 312.294 177.487C313.032 178.099 313.642 178.852 314.086 179.702C314.531 180.552 314.801 181.482 314.883 182.438C314.965 183.394 314.855 184.356 314.561 185.269C314.267 186.182 313.794 187.028 313.17 187.756C312.546 188.485 311.784 189.081 310.927 189.512C310.07 189.942 309.136 190.198 308.179 190.263Z" fill="#6C63FF"/>
            <path d="M298.364 222.428C294.503 223.432 281.491 219.356 281.491 219.356C281.491 219.356 290.864 209.448 294.724 208.44C296.558 208.017 298.485 208.327 300.094 209.304C301.703 210.28 302.867 211.847 303.339 213.669C303.812 215.492 303.555 217.427 302.623 219.063C301.691 220.699 300.157 221.906 298.349 222.428H298.364Z" fill="#6C63FF"/>
            <path opacity="0.25" d="M309.06 120.096C307.574 123.802 309.963 137.235 309.963 137.235C309.963 137.235 320.978 129.187 322.464 125.485C322.818 124.604 322.995 123.661 322.984 122.712C322.974 121.763 322.777 120.825 322.405 119.951C322.032 119.078 321.491 118.287 320.813 117.623C320.135 116.959 319.332 116.435 318.452 116.081C317.571 115.727 316.629 115.55 315.681 115.56C314.732 115.571 313.794 115.768 312.921 116.141C312.048 116.513 311.258 117.055 310.594 117.733C309.93 118.412 309.406 119.214 309.053 120.096H309.06Z" fill="black"/>
            <path opacity="0.25" d="M289.744 136.158C290.509 140.075 299.813 150.051 299.813 150.051C299.813 150.051 304.689 137.307 303.924 133.391C303.538 131.528 302.433 129.894 300.85 128.841C299.267 127.787 297.333 127.401 295.468 127.765C293.602 128.129 291.955 129.214 290.883 130.786C289.812 132.357 289.403 134.287 289.744 136.158Z" fill="black"/>
            <path opacity="0.25" d="M276.155 171.409C278.79 174.404 291.854 178.299 291.854 178.299C291.854 178.299 289.632 164.837 286.997 161.842C286.37 161.129 285.609 160.548 284.758 160.129C283.906 159.711 282.981 159.465 282.035 159.405C281.088 159.345 280.139 159.471 279.242 159.778C278.344 160.085 277.516 160.565 276.804 161.192C276.092 161.819 275.511 162.581 275.093 163.432C274.675 164.284 274.429 165.21 274.368 166.157C274.308 167.104 274.435 168.054 274.742 168.952C275.048 169.849 275.528 170.678 276.155 171.391V171.409Z" fill="black"/>
            <path opacity="0.25" d="M271.871 200.396C273.962 203.794 286.181 209.862 286.181 209.862C286.181 209.862 286.264 196.215 284.173 192.817C283.679 192.001 283.029 191.291 282.26 190.728C281.49 190.165 280.617 189.76 279.691 189.536C278.764 189.311 277.803 189.273 276.861 189.423C275.92 189.572 275.018 189.907 274.206 190.407C273.394 190.907 272.69 191.562 272.133 192.336C271.575 193.11 271.177 193.986 270.96 194.915C270.743 195.844 270.711 196.806 270.868 197.747C271.024 198.687 271.365 199.588 271.871 200.396Z" fill="black"/>
            <path opacity="0.25" d="M313.616 156.427C309.923 157.939 296.482 155.64 296.482 155.64C296.482 155.64 304.457 144.564 308.139 143.052C309.905 142.36 311.873 142.39 313.617 143.136C315.361 143.883 316.741 145.285 317.46 147.041C318.179 148.797 318.179 150.766 317.46 152.522C316.741 154.278 315.36 155.681 313.616 156.427Z" fill="black"/>
            <path opacity="0.25" d="M308.179 190.263C304.192 190.604 292.064 184.385 292.064 184.385C292.064 184.385 302.978 176.203 306.951 175.862C307.904 175.765 308.868 175.858 309.786 176.137C310.703 176.416 311.556 176.875 312.294 177.487C313.032 178.099 313.642 178.852 314.086 179.702C314.531 180.552 314.801 181.482 314.883 182.438C314.965 183.394 314.855 184.356 314.561 185.269C314.267 186.182 313.794 187.028 313.17 187.756C312.546 188.485 311.784 189.081 310.927 189.512C310.07 189.942 309.136 190.198 308.179 190.263Z" fill="black"/>
            <path opacity="0.25" d="M298.364 222.428C294.503 223.432 281.491 219.356 281.491 219.356C281.491 219.356 290.864 209.448 294.724 208.44C296.558 208.017 298.485 208.327 300.094 209.304C301.703 210.28 302.867 211.847 303.339 213.669C303.812 215.492 303.555 217.427 302.623 219.063C301.691 220.699 300.157 221.906 298.349 222.428H298.364Z" fill="black"/>
            <path d="M272.73 232.659C272.73 232.659 302.742 216.828 311.978 191.953C315.856 181.509 322.852 172.5 332.2 166.469C336.647 163.617 341.347 161.178 346.239 159.183" stroke="#535461" stroke-width="2" stroke-miterlimit="10"/>
            <path d="M352.147 143.534C349.291 146.316 346.032 159.568 346.032 159.568C346.032 159.568 359.36 156.666 362.22 153.896C363.563 152.553 364.324 150.734 364.337 148.834C364.351 146.934 363.616 145.106 362.292 143.744C360.968 142.382 359.161 141.596 357.262 141.557C355.364 141.518 353.526 142.228 352.147 143.534Z" fill="#6C63FF"/>
            <path d="M327.985 150.392C327.097 154.284 331.562 167.176 331.562 167.176C331.562 167.176 341.179 157.504 342.074 153.613C342.307 152.68 342.351 151.71 342.205 150.76C342.059 149.81 341.724 148.898 341.221 148.079C340.719 147.26 340.058 146.549 339.277 145.989C338.496 145.428 337.612 145.029 336.675 144.815C335.738 144.601 334.768 144.575 333.822 144.741C332.875 144.906 331.971 145.259 331.162 145.779C330.354 146.298 329.657 146.974 329.112 147.766C328.568 148.558 328.187 149.451 327.992 150.392H327.985Z" fill="#6C63FF"/>
            <path d="M301.292 177.11C302.488 180.918 312.848 189.803 312.848 189.803C312.848 189.803 316.27 176.595 315.073 172.787C314.805 171.862 314.354 171 313.747 170.253C313.141 169.505 312.391 168.886 311.543 168.432C310.694 167.978 309.763 167.698 308.804 167.609C307.846 167.52 306.88 167.624 305.962 167.914C305.044 168.204 304.193 168.674 303.46 169.298C302.726 169.921 302.125 170.685 301.69 171.545C301.256 172.404 300.998 173.341 300.931 174.302C300.864 175.263 300.989 176.227 301.3 177.139L301.292 177.11Z" fill="#6C63FF"/>
            <path d="M285.626 201.876C286.163 205.829 294.873 216.328 294.873 216.328C294.873 216.328 300.477 203.889 299.947 199.932C299.82 198.991 299.508 198.085 299.031 197.265C298.553 196.445 297.919 195.727 297.164 195.152C296.409 194.577 295.548 194.157 294.631 193.915C293.713 193.673 292.757 193.614 291.817 193.741C290.877 193.869 289.971 194.181 289.152 194.659C288.332 195.136 287.614 195.771 287.04 196.526C286.465 197.282 286.045 198.143 285.803 199.061C285.561 199.979 285.502 200.935 285.63 201.876H285.626Z" fill="#6C63FF"/>
            <path d="M341.581 178.593C337.594 178.481 326.234 170.926 326.234 170.926C326.234 170.926 338.003 164.036 341.99 164.144C343.887 164.225 345.676 165.049 346.969 166.439C348.263 167.829 348.959 169.672 348.905 171.571C348.851 173.469 348.052 175.27 346.682 176.584C345.311 177.898 343.479 178.62 341.581 178.593Z" fill="#6C63FF"/>
            <path d="M322.906 207.323C319.137 206.021 310.557 195.417 310.557 195.417C310.557 195.417 323.845 192.36 327.619 193.662C329.389 194.318 330.833 195.641 331.64 197.348C332.448 199.056 332.555 201.012 331.939 202.798C331.323 204.583 330.033 206.057 328.345 206.903C326.657 207.748 324.704 207.899 322.906 207.323Z" fill="#6C63FF"/>
            <path d="M300.93 232.749C296.993 232.104 286.743 223.102 286.743 223.102C286.743 223.102 299.328 217.84 303.264 218.486C305.127 218.825 306.783 219.883 307.874 221.431C308.966 222.98 309.406 224.895 309.1 226.765C308.794 228.635 307.766 230.31 306.238 231.429C304.71 232.548 302.804 233.022 300.93 232.749Z" fill="#6C63FF"/>
            <path d="M275.361 234.871H272.146L248.629 113.404L245.613 234.871H242.199L238.378 113.608L215.463 234.871H211.846L227.421 110.024L227.928 105.966L258.481 102.546L259.431 110.024L275.361 234.871Z" fill="#464353"/>
            <path d="M210.461 78.1972H191.014V90.263H210.461V78.1972Z" fill="#464353"/>
            <path d="M303.848 72.9205L315.606 68.1696H318.183C318.559 68.1696 318.92 68.319 319.186 68.5849C319.451 68.8509 319.601 69.2115 319.601 69.5876V102.72C319.601 103.096 319.451 103.457 319.186 103.723C318.92 103.989 318.559 104.138 318.183 104.138H315.606L303.848 99.2389V72.9205Z" fill="#464353"/>
            <path d="M303.848 74.4291H279.805V97.7302H303.848V74.4291Z" fill="#464353"/>
            <path d="M253.548 30.6631H238.07V33.4774H253.548V30.6631Z" fill="#514E7F"/>
            <path d="M263.976 34.3078H220.411V66.1314H263.976V34.3078Z" fill="#514E7F"/>
            <path opacity="0.1" d="M263.976 62.3634H220.411V66.1351H263.976V62.3634Z" fill="black"/>
            <path opacity="0.1" d="M280.407 74.4291H279.432V97.7302H280.407V74.4291Z" fill="black"/>
            <path opacity="0.1" d="M210.461 78.1972H203.828V90.263H210.461V78.1972Z" fill="black"/>
            <path opacity="0.1" d="M259.431 110.024H227.421L227.928 105.966L258.481 102.546L259.431 110.024Z" fill="black"/>
            <path d="M275.923 62.9654H208.308C206.166 62.9654 204.429 64.7028 204.429 66.8459V105.538C204.429 107.681 206.166 109.419 208.308 109.419H275.923C278.065 109.419 279.801 107.681 279.801 105.538V66.8459C279.801 64.7028 278.065 62.9654 275.923 62.9654Z" fill="#514E7F"/>
            <path d="M303.619 72.9205H303.848V99.2389H303.619C303.12 99.2389 302.642 99.0405 302.289 98.6876C301.936 98.3346 301.738 97.8558 301.738 97.3566V74.8027C301.738 74.3035 301.936 73.8247 302.289 73.4718C302.642 73.1188 303.12 72.9205 303.619 72.9205Z" fill="#514E7F"/>
            <path d="M315.606 68.1805H318.046C318.458 68.1805 318.854 68.3444 319.145 68.6362C319.437 68.9279 319.601 69.3237 319.601 69.7363V102.601C319.601 103.013 319.437 103.409 319.145 103.701C318.854 103.993 318.458 104.157 318.046 104.157H315.606V68.1805Z" fill="#514E7F"/>
            <path opacity="0.1" d="M194.483 78.1972H191.014V90.263H194.483V78.1972Z" fill="black"/>
            <path d="M191.268 74.4291H189.706C188.265 74.4291 187.096 75.5982 187.096 77.0403V92.3301C187.096 93.7722 188.265 94.9413 189.706 94.9413H191.268C192.71 94.9413 193.878 93.7722 193.878 92.3301V77.0403C193.878 75.5982 192.71 74.4291 191.268 74.4291Z" fill="#514E7F"/>
            <path d="M220.411 56.0277C232.4 56.0277 242.119 46.3034 242.119 34.3078C242.119 22.3123 232.4 12.588 220.411 12.588C208.422 12.588 198.702 22.3123 198.702 34.3078C198.702 46.3034 208.422 56.0277 220.411 56.0277Z" fill="#464353"/>
            <path d="M220.411 50.5986C229.403 50.5986 236.693 43.305 236.693 34.3078C236.693 25.3107 229.403 18.0171 220.411 18.0171C211.418 18.0171 204.129 25.3107 204.129 34.3078C204.129 43.305 211.418 50.5986 220.411 50.5986Z" fill="#6C63FF"/>
            <path d="M260.659 50.5986C269.402 50.5986 276.488 43.5079 276.488 34.7612C276.488 26.0144 269.402 18.9237 260.659 18.9237C251.917 18.9237 244.83 26.0144 244.83 34.7612C244.83 43.5079 251.917 50.5986 260.659 50.5986Z" fill="#464353"/>
            <path d="M260.659 46.6384C267.216 46.6384 272.53 41.3207 272.53 34.7612C272.53 28.2016 267.216 22.884 260.659 22.884C254.103 22.884 248.789 28.2016 248.789 34.7612C248.789 41.3207 254.103 46.6384 260.659 46.6384Z" fill="#6C63FF"/>
            <path d="M259.431 71.963C260.582 71.963 261.515 71.0294 261.515 69.8777C261.515 68.726 260.582 67.7924 259.431 67.7924C258.28 67.7924 257.346 68.726 257.346 69.8777C257.346 71.0294 258.28 71.963 259.431 71.963Z" fill="#6C63FF"/>
            <path opacity="0.5" d="M266.06 71.963C267.211 71.963 268.145 71.0294 268.145 69.8777C268.145 68.726 267.211 67.7924 266.06 67.7924C264.909 67.7924 263.976 68.726 263.976 69.8777C263.976 71.0294 264.909 71.963 266.06 71.963Z" fill="#6C63FF"/>
            <path d="M239.828 77.0729L239.68 76.7792C240.599 77.0847 241.481 77.491 242.311 77.9905C241.949 74.8389 229.868 65.99 227.693 65.99C225.518 65.99 223.1 62.2328 223.1 62.2328C223.1 62.2328 216.819 61.2645 215.851 60.2382C214.883 59.2118 208.359 59.8102 206.789 60.1729C205.22 60.5355 202.802 59.2046 202.802 59.2046C202.802 59.2046 201.472 57.0286 199.783 57.0286C198.094 57.0286 196.285 54.606 196.285 54.606C196.285 54.606 194.708 53.1554 193.258 52.9088C191.808 52.6621 189.996 51.0954 189.148 49.8805C188.3 48.6656 184.073 48.0672 181.659 48.4299C179.245 48.7925 172.717 47.9367 172.717 47.9367C175.374 46.7254 176.015 43.8168 176.015 43.8168C173.638 43.6935 167.389 38.4422 167.389 38.4422C167.389 38.4422 167.646 40.1394 167.943 42.5076L167.541 41.989L167.487 42.0325C167.359 40.343 167.341 38.6471 167.432 36.9552C167.432 36.8247 167.454 36.6941 167.461 36.56C169.009 35.2035 170.156 33.4497 170.78 31.488C171.403 29.5263 171.479 27.4315 170.999 25.4298C170.934 25.1542 170.858 24.8859 170.771 24.6211C171.233 24.8136 171.722 24.9358 172.22 24.9838H172.478C172.778 24.9858 173.075 24.9241 173.349 24.8028C173.623 24.6815 173.869 24.5034 174.069 24.2802C174.137 24.1943 174.196 24.102 174.247 24.0046C174.259 23.986 174.27 23.9667 174.279 23.9466C174.322 23.8575 174.359 23.7654 174.388 23.6709C174.398 23.6375 174.407 23.6037 174.413 23.5694C174.432 23.4952 174.446 23.4202 174.457 23.3445C174.457 23.2829 174.457 23.2176 174.457 23.1523C174.457 23.0871 174.457 23.058 174.457 23.0109C174.442 22.4533 174.319 21.904 174.094 21.3934C173.714 20.4578 173.166 19.533 173.206 18.5211C173.206 18.4377 173.224 18.3579 173.235 18.2782C173.337 17.4839 173.754 16.7477 174.004 15.9825V15.9499C174.04 15.8374 174.069 15.725 174.094 15.6126C174.106 15.5794 174.116 15.5455 174.123 15.511C174.15 15.3782 174.169 15.2437 174.178 15.1085C174.178 15.1085 174.178 15.0904 174.178 15.0795C174.272 13.5635 173.05 12.2398 171.666 11.6269C170.426 11.0757 169.009 10.927 167.874 10.1763C166.58 9.32403 165.87 7.848 164.913 6.62583C163.521 4.84878 161.343 3.52143 159.114 3.7753C157.74 3.93124 156.493 4.65294 155.126 4.93219C153.049 5.36376 150.853 4.73635 148.787 5.21869C148.285 5.30209 147.828 5.55873 147.496 5.94402C147.358 6.13846 147.268 6.36372 147.235 6.60044C147.206 6.81949 147.206 7.04143 147.235 7.26048V7.27861C147.259 7.48764 147.296 7.69484 147.348 7.89877L147.38 8.0257C147.38 8.06922 147.398 8.10911 147.409 8.15263C147.42 8.19615 147.456 8.32308 147.478 8.40649C147.518 8.54793 147.551 8.68937 147.587 8.83444V8.88521C147.62 9.0339 147.652 9.18259 147.678 9.33491C147.736 9.6489 147.775 9.96624 147.794 10.2851C147.879 11.1824 147.685 12.0842 147.239 12.8672C146.333 14.3179 144.408 14.9598 143.571 16.4721C143.373 16.837 143.25 17.2377 143.208 17.6507C143.193 17.788 143.187 17.9261 143.19 18.0642V18.1186C143.19 18.2383 143.19 18.3579 143.223 18.4812C143.221 18.5102 143.221 18.5393 143.223 18.5683C143.241 18.6759 143.266 18.7824 143.295 18.8874C143.295 18.9237 143.313 18.9563 143.324 18.989C143.364 19.113 143.413 19.2342 143.469 19.3516C143.857 20.1604 144.589 20.8277 144.742 21.7053C144.742 21.7307 144.742 21.7561 144.76 21.7851C144.843 22.4451 144.571 23.0907 144.43 23.7398C144.411 23.8188 144.397 23.8987 144.386 23.9792C144.386 24.0046 144.386 24.03 144.386 24.0554C144.386 24.0807 144.386 24.1642 144.386 24.2222C144.386 24.2802 144.386 24.2838 144.386 24.3165C144.386 24.3491 144.386 24.4144 144.386 24.4615C144.384 24.4954 144.384 24.5293 144.386 24.5631C144.386 24.6102 144.386 24.6574 144.386 24.7009C144.386 24.7444 144.386 24.7662 144.386 24.7988C144.386 24.8315 144.408 24.8895 144.423 24.933L144.448 25.0237C144.465 25.067 144.484 25.1093 144.506 25.1506L144.546 25.2304C144.572 25.2744 144.601 25.3167 144.633 25.3573C144.646 25.3775 144.661 25.3969 144.676 25.4153C144.726 25.4736 144.782 25.5259 144.843 25.5713C145.343 25.934 146.123 25.8397 146.532 26.2966C146.578 26.352 146.617 26.4129 146.648 26.4779L146.67 26.5215C146.7 26.5853 146.723 26.6522 146.739 26.7209C146.797 26.9935 146.797 27.2752 146.739 27.5478C146.594 28.2731 146.286 28.9332 146.123 29.644C146.09 29.7891 146.068 29.9377 146.05 30.0864C146.05 30.1553 146.05 30.2206 146.032 30.2859V30.3294C146.032 30.3911 146.032 30.4563 146.032 30.518C146.032 30.5797 146.032 30.5506 146.032 30.5688C146.032 30.6594 146.032 30.7537 146.054 30.8444C146.075 30.9351 146.054 30.9314 146.075 30.9713L146.097 31.0765C146.097 31.1236 146.123 31.1708 146.137 31.2179L146.17 31.3086C146.188 31.3594 146.213 31.4101 146.235 31.4609C146.246 31.4846 146.258 31.5076 146.271 31.5298C146.308 31.604 146.351 31.6745 146.402 31.7402C146.84 32.3349 147.562 32.5344 148.323 32.538C148.754 32.5356 149.185 32.487 149.606 32.393C149.7 32.6142 149.798 32.8354 149.903 33.0494C150.429 34.108 151.117 35.0773 151.944 35.9217C151.944 36.0341 151.922 36.1429 151.908 36.2589C151.824 37.0858 151.723 37.9743 151.607 38.8701C150.668 38.4385 149.943 38.2717 149.657 38.5836C148.442 39.9182 149.657 44.524 149.657 44.524C149.657 44.524 143.73 44.524 142.28 45.855C140.831 47.186 138.174 45.855 138.174 45.855C138.174 45.855 132.737 46.4643 133.099 47.5559C133.461 48.6475 130.199 47.5559 130.199 47.5559C130.199 47.5559 127.901 47.7989 128.024 49.3692C128.148 50.9395 124.519 51.6685 125.001 52.7601C125.484 53.8517 122.827 54.5734 122.827 54.5734C122.827 54.5734 120.17 54.4537 121.138 56.024C121.138 56.024 119.688 59.4185 118.481 59.6507C117.274 59.8828 115.7 62.6789 115.7 62.6789C115.7 62.6789 111.046 63.5275 111.257 64.9818C111.467 66.4361 104.101 76.8408 104.101 76.8408C104.101 76.8408 101.684 81.8274 103.376 85.4649C105.069 89.1024 106.276 91.525 106.639 92.856C107.001 94.187 111.394 100.048 111.358 101.139C111.358 101.48 112.445 103.315 113.928 105.643L113.493 106.093L112.54 107.076C112.54 107.076 109.517 114.59 113.141 114.953C116.204 115.258 118.404 115.479 119.521 115.174C119.702 115.132 119.874 115.057 120.028 114.953L120.072 114.92C121.391 116.868 122.326 118.228 122.326 118.228C122.326 118.228 122.457 118.036 122.689 117.706L123.051 118.224C123.051 118.224 123.341 117.811 123.834 117.136C123.675 120.433 123.653 123.682 123.653 123.682C123.653 123.682 125.226 123.439 124.501 130.711C123.776 137.982 128.851 143.919 128.851 143.919V154.708C128.851 154.708 128.851 154.98 128.902 155.433C129.036 156.982 129.478 160.634 130.783 163.049C132.476 166.197 130.783 174.44 130.783 174.44C130.783 174.44 130.67 181.164 131.076 189.549C131.076 189.777 131.102 190.013 131.113 190.245C123.784 196.374 115.922 204.498 115.922 204.498C116.307 204.606 116.673 204.771 117.009 204.987L116.57 205.55L114.573 208.012L113.029 209.92L115.476 217.459L118.147 216.415C118.147 216.415 119.597 218.928 119.293 220.633C119.246 220.941 119.121 221.232 118.93 221.478C118.838 221.601 118.773 221.744 118.742 221.895C118.042 224.626 120.96 236.401 125.589 236.913C125.589 236.913 127.158 237.431 127.662 236.017C127.905 235.335 127.901 234.204 127.358 232.365C127.358 232.365 124.911 229.413 126.495 226.232C127.423 224.372 128.956 221.88 130.065 220.121L130.522 219.396C131.519 220.654 132.131 221.463 132.131 221.463L135.691 217.634C135.767 217.797 135.843 217.956 135.923 218.109C136.189 218.642 136.497 219.154 136.843 219.639L139.257 229.217L140.232 228.999C140.211 229.231 140.196 229.478 140.182 229.725C140.102 231.444 140.182 233.674 140.975 235.266C141.57 236.485 142.574 237.333 144.212 237.293C149.831 237.156 151.462 234.113 151.462 234.113V226.497L153.394 226.065C153.394 226.065 153.252 209.332 152.756 200.001C152.756 199.794 152.734 199.595 152.723 199.399C152.723 199.37 152.723 199.341 152.723 199.315L165.131 185.966L166.084 185.585C174.058 182.434 174.181 174.314 174.181 174.314C174.181 174.314 174.181 169.831 175.146 166.074C176.11 162.317 175.269 142.802 173.456 137.957C171.644 133.111 171.039 127.65 171.039 127.65C171.039 127.65 172.851 125.111 171.039 122.997C170.527 122.364 170.1 121.667 169.77 120.922L172.13 120.534L173.489 120.31L174.214 120.186C173.852 123.392 173.79 125.855 174.649 126.442C177.309 128.255 186.248 122.199 186.248 122.199C182.986 122.199 181.173 97.839 181.837 97.2333C182.5 96.6277 183.49 84.4205 182.623 82.2445C181.757 80.0685 185.664 70.3528 185.664 70.3528L186.266 69.4607C186.266 69.4607 200.526 75.6876 202.095 76.8807C203.665 78.0739 208.62 73.9794 209.464 75.5643C210.309 77.1491 215.626 79.51 215.626 79.51C215.626 79.51 223.481 78.7158 224.325 80.656C225.17 82.5963 230.248 87.1404 230.248 87.1404C230.251 86.075 230.315 85.0106 230.44 83.9526C230.545 84.2029 230.647 84.4567 230.756 84.7142C233.163 90.4116 237.168 97.625 240.88 93.7445C245.084 89.3345 241.884 81.1819 239.828 77.0729ZM132.36 102.822V102.891L132.331 102.862L132.36 102.822ZM129.547 74.868L128.01 91.0826L124.991 94.2123L124.628 94.5968L121.507 91.1986C121.507 91.1986 119.934 90.4733 121.507 89.1387C123.08 87.8041 118.85 84.7868 118.85 84.7868C118.85 84.7868 118.727 82.6108 120.3 82.0015C121.873 81.3922 123.925 77.3957 123.925 77.3957L129.605 74.4944L129.547 74.868ZM149.758 157.86C149.868 157.757 149.99 157.669 150.121 157.595C150.798 157.21 151.233 157.631 151.458 158.371C151.754 159.611 151.664 160.912 151.201 162.099C150.356 164.039 152.411 171.797 152.411 171.797C152.411 171.797 149.751 173.004 149.269 175.311C149.197 175.594 149.074 175.862 148.906 176.101C148.874 175.898 148.845 175.703 148.816 175.514C148.58 174.063 148.453 173.128 148.453 173.128C148.02 171.261 147.938 169.33 148.21 167.434C148.595 165.102 149.37 160.366 149.66 158.57C149.733 158.135 149.773 157.874 149.776 157.845L149.758 157.86Z" fill="url(#paint0_linear)"/>
            <path d="M166.606 39.784L167.389 39.2618L169.596 43.922L168.748 44.9193H166.182C166.182 44.9193 166.272 42.3807 166.334 42.29C166.396 42.1993 166.606 39.784 166.606 39.784Z" fill="#464353"/>
            <path d="M151.451 224.506V234.479C151.451 234.479 149.82 237.515 144.201 237.652C143.519 237.693 142.841 237.52 142.262 237.158C141.682 236.796 141.229 236.263 140.965 235.632C140.182 234.044 140.091 231.817 140.171 230.102C140.211 229.244 140.302 228.389 140.443 227.541L151.451 224.506Z" fill="#3F3D56"/>
            <path opacity="0.1" d="M151.451 224.506V227.592L140.171 230.102C140.211 229.244 140.302 228.389 140.443 227.541L151.451 224.506Z" fill="black"/>
            <path d="M153.383 226.439L139.246 229.583L136.832 220.031C136.487 219.546 136.179 219.036 135.912 218.504C135.756 218.199 135.604 217.876 135.459 217.539C132.827 211.515 131.656 200.65 131.156 191.406C131.131 190.938 131.105 190.474 131.084 190.017C130.678 181.654 130.79 174.945 130.79 174.945C130.79 174.945 132.483 166.723 130.79 163.582C129.485 161.16 129.043 157.519 128.909 155.966C128.873 155.506 128.858 155.241 128.858 155.241L129.119 154.556L130.185 151.734H141.907L148.721 157.504L149.758 158.382L149.642 159.107C149.349 160.899 148.573 165.635 148.192 167.949C147.919 169.841 148.002 171.767 148.435 173.628C148.435 173.628 148.576 174.549 148.798 176.011C148.852 176.373 148.914 176.758 148.982 177.175C149.849 182.535 151.473 192.323 152.165 194.662C152.357 195.304 152.527 196.915 152.654 199.094C152.683 199.529 152.709 199.983 152.734 200.458C153.241 209.749 153.383 226.439 153.383 226.439Z" fill="#514E7F"/>
            <path opacity="0.1" d="M151.451 234.378V234.479C151.451 234.479 149.82 237.515 144.201 237.652C143.519 237.693 142.841 237.52 142.262 237.158C141.682 236.796 141.229 236.263 140.965 235.632C143.484 236.253 147.572 236.651 151.451 234.378Z" fill="black"/>
            <path d="M240.861 94.43C237.135 98.2996 233.148 91.1044 230.737 85.4214C229.385 82.2228 228.537 79.4992 228.537 79.4992L238.455 75.2995C238.455 75.2995 239.063 76.2678 239.828 77.8019C241.884 81.9 245.084 90.0309 240.861 94.43Z" fill="#A1616A"/>
            <path d="M167.443 37.7785C167.284 41.3687 167.553 44.965 168.244 48.4915C168.244 48.4915 148.069 50.6675 149.881 47.5269C150.943 45.6845 151.632 40.8212 152.016 37.104C152.295 34.471 152.419 32.4147 152.419 32.4147C152.419 32.4147 171.749 24.6792 168.849 31.2071C167.983 33.1546 167.581 35.4611 167.443 37.7785Z" fill="#A1616A"/>
            <path d="M169.147 89.7153L166.435 122.112L178.879 120.059L176.704 93.342L177.429 86.2084L169.147 89.7153Z" fill="#464353"/>
            <path opacity="0.1" d="M178.879 120.11L173.475 121.002L166.432 122.163L166.928 116.251L169.147 89.7661L171.97 88.5693L173.971 87.7243L177.429 86.2592L176.704 93.3927L178.879 120.11Z" fill="black"/>
            <path d="M126.484 226.584C124.9 229.757 127.347 232.702 127.347 232.702C127.89 234.541 127.894 235.665 127.651 236.329C127.147 237.74 125.578 237.221 125.578 237.221C120.641 236.677 117.651 223.353 118.919 221.826C120.188 220.299 118.147 216.792 118.147 216.792L115.476 217.833L113.029 210.311L114.573 208.407L116.57 205.949L117.922 204.28L131.424 218.377C131.424 218.377 130.848 219.244 130.054 220.488C128.945 222.232 127.412 224.734 126.484 226.584Z" fill="#3F3D56"/>
            <path opacity="0.1" d="M152.745 200.44L135.912 218.504C132.961 212.738 131.693 201.169 131.156 191.402C134.291 188.791 137.318 186.543 139.609 185.458C139.609 185.458 147.359 179.848 148.993 177.157C149.86 182.517 151.483 192.305 152.176 194.644C152.404 195.413 152.593 197.571 152.745 200.44Z" fill="black"/>
            <path opacity="0.1" d="M148.721 157.501L129.119 154.552L130.185 151.731H141.907L148.721 157.501Z" fill="black"/>
            <path opacity="0.1" d="M152.68 199.076L135.473 217.539C132.827 211.515 131.656 200.65 131.156 191.406C131.131 190.938 131.105 190.474 131.084 190.017C134.248 187.377 137.311 185.106 139.609 184.011C139.609 184.011 146.84 178.778 148.808 175.996C148.863 176.359 148.924 176.743 148.993 177.16C149.86 182.521 151.483 192.309 152.176 194.648C152.368 195.286 152.527 196.897 152.68 199.076Z" fill="black"/>
            <path opacity="0.1" d="M131.424 218.384C131.424 218.384 130.848 219.251 130.054 220.495C127.173 216.85 120.34 208.458 116.57 205.956L117.922 204.288L131.424 218.384Z" fill="black"/>
            <path d="M175.131 166.596C174.167 170.346 174.167 174.818 174.167 174.818C174.167 174.818 174.044 182.916 166.069 186.06L165.116 186.423L132.131 221.83C132.131 221.83 119.927 205.872 115.94 204.904C115.94 204.904 132.008 188.341 139.62 184.715C139.62 184.715 148.805 178.067 149.287 175.771C149.769 173.476 152.43 172.265 152.43 172.265C152.43 172.265 150.374 164.529 151.219 162.592C151.683 161.409 151.772 160.111 151.476 158.875C151.252 158.15 150.817 157.718 150.139 158.099C150.008 158.173 149.886 158.262 149.776 158.364L128.876 155.219V144.474C128.876 144.474 123.802 138.551 124.527 131.298C125.252 124.045 123.678 124.288 123.678 124.288C123.678 124.288 123.755 112.037 124.788 111.014C125.821 109.992 135.745 105.306 135.745 105.306L166.859 110.837L168.143 116.792C168.143 116.792 169.23 121.528 171.042 123.632C172.855 125.735 171.042 128.27 171.042 128.27C171.042 128.27 171.648 133.71 173.46 138.551C175.272 143.393 176.099 162.85 175.131 166.596Z" fill="#514E7F"/>
            <path opacity="0.1" d="M168.849 31.2071C167.983 33.1546 167.581 35.4756 167.443 37.7785C165.272 39.6597 162.464 40.6379 159.596 40.5125C156.727 40.3871 154.015 39.1674 152.016 37.104C152.295 34.471 152.419 32.4147 152.419 32.4147C152.419 32.4147 171.749 24.6792 168.849 31.2071Z" fill="black"/>
            <path d="M171.321 28.9332C171.32 31.7998 170.224 34.5574 168.257 36.6423C166.291 38.7272 163.603 39.9818 160.743 40.1496C157.882 40.3174 155.066 39.3857 152.87 37.5451C150.673 35.7044 149.263 33.0938 148.926 30.2471C148.59 27.4003 149.353 24.5325 151.059 22.2299C152.766 19.9273 155.287 18.3639 158.107 17.8593C160.928 17.3548 163.834 17.9473 166.232 19.5156C168.631 21.0839 170.34 23.5095 171.01 26.2966C171.217 27.1601 171.322 28.0451 171.321 28.9332Z" fill="#A1616A"/>
            <path opacity="0.1" d="M162.205 48.4915C162.205 48.4915 154.13 44.7452 153.626 44.2593C153.122 43.7733 136.368 86.814 136.368 86.814L131.656 108.211C131.656 108.211 156.786 118.968 162.223 117.517C167.661 116.066 168.143 117.517 168.143 117.517C168.143 117.517 173.703 86.3281 175.515 83.5501C177.328 80.7721 173.823 52.4808 173.823 52.4808L167.541 44.2556L162.205 48.4915Z" fill="black"/>
            <path opacity="0.1" d="M162.205 47.0409C162.205 47.0409 154.13 43.2946 153.626 42.8086C153.122 42.3226 136.368 85.3634 136.368 85.3634L131.656 106.76C131.656 106.76 156.786 117.517 162.223 116.066C167.661 114.616 168.143 116.066 168.143 116.066C168.143 116.066 173.703 84.8774 175.515 82.0994C177.328 79.3214 173.823 51.0302 173.823 51.0302L167.541 42.805L162.205 47.0409Z" fill="black"/>
            <path d="M175.493 82.8248C175.131 83.4014 174.584 85.1929 173.971 87.6735C173.543 89.3998 173.079 91.4561 172.605 93.6684C170.466 103.652 168.124 116.795 168.124 116.795C168.124 116.795 167.976 116.353 166.928 116.201C166.08 116.077 164.638 116.146 162.216 116.795C156.779 118.246 131.646 107.486 131.646 107.486L132.37 104.222L136.358 86.0887C136.358 86.0887 153.154 43.0516 153.637 43.5376C153.93 43.8313 157.069 45.3509 159.461 46.4788C160.987 47.2041 162.216 47.7662 162.216 47.7662L167.291 43.7552L167.57 43.5339L173.822 51.7555C173.822 51.7555 177.306 80.0431 175.493 82.8248Z" fill="#6C63FF"/>
            <path opacity="0.1" d="M156.283 51.9985C157.008 54.7874 155.318 59.3714 155.318 59.3714C155.318 59.3714 149.519 73.6385 147.826 80.2317C146.133 86.8249 136.452 100.113 136.452 100.113C136.452 100.113 135.031 101.538 133.041 103.522C132.82 103.743 132.588 103.972 132.356 104.211L136.343 86.0779C136.343 86.0779 153.14 43.0408 153.622 43.5267C153.916 43.8205 157.055 45.34 159.447 46.4679C157.95 47.8315 155.8 50.1526 156.283 51.9985Z" fill="black"/>
            <path d="M155.558 51.9985C156.283 54.7874 154.593 59.3714 154.593 59.3714C154.593 59.3714 148.794 73.6386 147.101 80.2318C145.408 86.825 135.727 100.113 135.727 100.113C135.727 100.113 134.306 101.538 132.316 103.522C132.08 103.758 131.834 104.001 131.591 104.247C127.705 108.117 122.243 113.542 120.536 115.127C120.286 115.363 120.115 115.515 120.043 115.566C119.889 115.67 119.717 115.745 119.535 115.787C118.419 116.092 116.219 115.871 113.156 115.566C109.531 115.203 112.554 107.711 112.554 107.711L113.507 106.728L114.377 105.828L124.251 95.663L124.976 94.8978L127.995 91.7825L129.532 75.6078L129.569 75.2198C129.569 75.2198 129.119 74.1934 128.427 72.6267C126.582 68.3872 122.957 60.2056 121.63 57.5617C121.478 57.2535 121.359 57.025 121.268 56.8836C121.268 56.8654 121.25 56.8473 121.239 56.8328C120.271 55.2625 122.928 55.3821 122.928 55.3821C122.928 55.3821 125.589 54.6568 125.103 53.5688C124.617 52.4808 128.246 51.7555 128.126 50.1852C128.006 48.6149 130.301 48.3719 130.301 48.3719C130.301 48.3719 133.563 49.4599 133.2 48.3719C132.838 47.2839 138.275 46.6783 138.275 46.6783C138.275 46.6783 140.932 48.0092 142.382 46.6783C143.832 45.3473 149.78 45.3509 149.78 45.3509C149.78 45.3509 148.566 40.756 149.78 39.425C150.994 38.094 160.099 45.3509 160.099 45.3509C160.099 45.3509 154.833 49.2133 155.558 51.9985Z" fill="#464353"/>
            <path opacity="0.1" d="M125.353 113.89C125.353 113.89 135.383 128.034 142.389 123.443C149.396 118.852 132.965 106.88 132.965 106.88L125.353 113.89Z" fill="black"/>
            <path d="M125.353 113.165C125.353 113.165 135.383 127.309 142.389 122.718C149.396 118.126 132.965 106.155 132.965 106.155L125.353 113.165Z" fill="#A1616A"/>
            <path opacity="0.1" d="M173.475 120.951C174.239 114.275 176.458 104.244 174.649 101.201C173.754 99.6922 173.09 96.8163 172.605 93.6684C172.344 91.9747 172.137 90.2013 171.97 88.5186C171.528 84.0542 171.387 80.2317 171.387 80.2317C171.387 80.2317 167.037 60.8221 167.882 56.8328C168.411 54.3377 167.802 48.0854 167.273 43.7552L167.552 43.534L173.804 51.7555C173.804 51.7555 177.306 80.0432 175.494 82.8248C175.131 83.4014 174.584 85.193 173.971 87.6736L177.429 86.2229L176.704 93.3565L178.879 120.074L173.475 120.951Z" fill="black"/>
            <path d="M167.389 39.2618C167.389 39.2618 173.638 44.5023 176.015 44.6219C176.015 44.6219 175.374 47.5232 172.717 48.7345C172.717 48.7345 179.241 49.5977 181.659 49.2241C184.077 48.8506 188.303 49.4598 189.148 50.6748C189.992 51.8897 191.826 53.4491 193.276 53.6885C194.726 53.9278 196.303 55.3821 196.303 55.3821L185.664 71.0963C185.664 71.0963 181.797 80.7685 182.641 82.9444C183.486 85.1204 182.518 97.3312 181.855 97.9333C181.192 98.5353 183.004 122.837 186.266 122.837C186.266 122.837 177.328 128.883 174.667 127.07C172.007 125.256 178.053 105.672 175.392 101.197C172.731 96.722 172.13 80.2281 172.13 80.2281C172.13 80.2281 167.78 60.822 168.628 56.8328C169.477 52.8435 167.389 39.2618 167.389 39.2618Z" fill="#464353"/>
            <path opacity="0.1" d="M239.828 77.8019C236.599 76.7937 231.651 76.7647 230.737 85.4178C229.385 82.2191 228.537 79.4955 228.537 79.4955L238.455 75.2959C238.455 75.2959 239.063 76.2678 239.828 77.8019Z" fill="black"/>
            <path d="M190.376 54.6568L196.303 55.3821C196.303 55.3821 198.115 57.8011 199.801 57.8011C201.486 57.8011 202.82 59.9771 202.82 59.9771C202.82 59.9771 205.238 61.3044 206.807 60.9417C208.377 60.5791 214.901 59.9807 215.869 61.007C216.837 62.0333 223.118 62.998 223.118 62.998C223.118 62.998 225.536 66.7443 227.711 66.7443C229.886 66.7443 241.967 75.5715 242.329 78.7122C242.329 78.7122 230.368 71.0963 230.248 87.8404C230.248 87.8404 225.174 83.3071 224.325 81.3741C223.477 79.4411 215.626 80.2281 215.626 80.2281C215.626 80.2281 210.312 77.8672 209.464 76.2969C208.616 74.7265 203.665 78.7992 202.095 77.6061C200.526 76.4129 186.266 70.2041 186.266 70.2041L181.855 61.91L190.376 54.6568Z" fill="#464353"/>
            <path d="M163.05 69.3446C163.616 69.3446 164.076 68.8851 164.076 68.3183C164.076 67.7515 163.616 67.292 163.05 67.292C162.483 67.292 162.024 67.7515 162.024 68.3183C162.024 68.8851 162.483 69.3446 163.05 69.3446Z" fill="#3F3D56"/>
            <path d="M162.024 90.7743C162.591 90.7743 163.05 90.3148 163.05 89.748C163.05 89.1811 162.591 88.7216 162.024 88.7216C161.458 88.7216 160.998 89.1811 160.998 89.748C160.998 90.3148 161.458 90.7743 162.024 90.7743Z" fill="#3F3D56"/>
            <path d="M163.05 79.4955C163.616 79.4955 164.076 79.036 164.076 78.4692C164.076 77.9024 163.616 77.4429 163.05 77.4429C162.483 77.4429 162.024 77.9024 162.024 78.4692C162.024 79.036 162.483 79.4955 163.05 79.4955Z" fill="#3F3D56"/>
            <path d="M160.089 102.053C160.655 102.053 161.114 101.594 161.114 101.027C161.114 100.46 160.655 100 160.089 100C159.522 100 159.063 100.46 159.063 101.027C159.063 101.594 159.522 102.053 160.089 102.053Z" fill="#3F3D56"/>
            <path opacity="0.1" d="M127.669 236.347C127.165 237.758 125.596 237.239 125.596 237.239C120.659 236.695 117.669 223.371 118.937 221.844C120.206 220.317 118.147 216.792 118.147 216.792L115.476 217.833L113.029 210.311L114.573 208.407C116.11 211.073 118.31 214.906 118.829 215.885C119.813 217.916 120.28 220.159 120.188 222.413C120.104 224.771 122.837 236.042 127.669 236.347Z" fill="black"/>
            <path opacity="0.1" d="M171.01 26.2821C170.763 26.1987 170.517 26.1008 170.285 26.0029C169.455 25.6656 168.581 25.2775 168.077 24.5522C167.617 23.8777 167.468 22.9275 166.751 22.5431C165.924 22.1006 164.938 22.699 164.043 22.9057C162.977 23.156 161.868 22.8586 160.832 22.4778C159.287 21.9084 157.131 20.8603 155.547 21.9447C154.314 22.7861 154.793 24.5703 154.478 25.8433C153.988 27.8198 151.889 29.1073 151.494 31.1055C151.317 31.9868 151.433 33.0639 150.719 33.6115C150.51 33.7602 150.273 33.8639 150.023 33.9162C149.323 32.4982 148.93 30.9485 148.869 29.3683C148.809 27.788 149.082 26.2128 149.672 24.7455C150.261 23.2781 151.153 21.9517 152.29 20.8529C153.427 19.7541 154.782 18.9075 156.268 18.3686C157.754 17.8296 159.337 17.6104 160.913 17.7252C162.49 17.84 164.024 18.2863 165.417 19.0348C166.809 19.7834 168.028 20.8174 168.993 22.0694C169.959 23.3213 170.65 24.763 171.021 26.3003L171.01 26.2821Z" fill="black"/>
            <path d="M160.824 21.7416C161.85 22.1224 162.967 22.4198 164.036 22.1659C164.946 21.9519 165.913 21.3535 166.74 21.8032C167.465 22.1913 167.61 23.1378 168.066 23.8124C168.57 24.5377 169.444 24.9439 170.278 25.263C170.899 25.5531 171.564 25.7393 172.246 25.8143C172.587 25.8477 172.931 25.8019 173.252 25.6805C173.572 25.5591 173.861 25.3654 174.094 25.1144C174.74 24.3346 174.544 23.1669 174.16 22.2348C173.775 21.3028 173.232 20.3744 173.272 19.3662C173.319 18.1694 174.185 17.1285 174.257 15.9354C174.352 14.4231 173.13 13.103 171.746 12.4901C170.506 11.9425 169.089 11.7902 167.954 11.0394C166.66 10.1908 165.95 8.71841 164.993 7.49986C163.601 5.72644 161.422 4.40273 159.193 4.65659C157.819 4.81254 156.573 5.53061 155.206 5.80986C153.129 6.24143 150.933 5.61402 148.866 6.09636C148.367 6.17494 147.911 6.42499 147.576 6.80355C147.069 7.48536 147.33 8.43916 147.554 9.25877C147.957 10.7348 148.127 12.4067 147.326 13.705C146.42 15.1738 144.495 15.7939 143.658 17.3026C143.416 17.7452 143.282 18.2389 143.267 18.7432C143.253 19.2476 143.358 19.7481 143.574 20.2039C143.973 21.038 144.745 21.7162 144.865 22.6337C144.948 23.2938 144.676 23.9357 144.535 24.5812C144.394 25.2268 144.433 26.0319 144.966 26.3946C145.499 26.7572 146.246 26.6665 146.655 27.1199C146.779 27.2999 146.861 27.5056 146.894 27.7217C146.927 27.9377 146.911 28.1584 146.847 28.3674C146.702 29.0928 146.394 29.7492 146.231 30.46C146.127 30.8086 146.097 31.1755 146.146 31.5363C146.194 31.8971 146.318 32.2436 146.51 32.5525C147.214 33.5027 148.634 33.4447 149.773 33.1908C150.101 33.1386 150.414 33.0148 150.69 32.8282C151.415 32.2806 151.288 31.2034 151.465 30.3222C151.86 28.3275 153.959 27.0328 154.448 25.06C154.764 23.787 154.285 21.9991 155.518 21.1577C157.12 20.1241 159.28 21.1722 160.824 21.7416Z" fill="#464353"/>
            <path opacity="0.1" d="M159.063 152.938C159.063 152.938 170.441 160.191 170.803 162.973L159.063 152.938Z" fill="black"/>
            <path opacity="0.1" d="M158.479 158.741C158.479 158.741 171.528 165.026 170.803 167.202L158.479 158.741Z" fill="black"/>
            <path opacity="0.1" d="M157.613 164.3C157.613 164.3 164.986 168.17 165.468 170.466L157.613 164.3Z" fill="black"/>
            <path opacity="0.1" d="M160.755 173.004C160.755 173.004 165.587 177.237 166.555 176.149C167.523 175.061 160.755 173.004 160.755 173.004Z" fill="black"/>
            <path opacity="0.1" d="M153.988 175.666C153.988 175.666 157.754 181.708 155.942 182.071C154.129 182.434 153.988 175.666 153.988 175.666Z" fill="black"/>
            <path opacity="0.1" d="M137.456 68.3183C137.456 68.3183 131.051 72.1843 132.983 73.1526C134.915 74.1209 137.456 68.3183 137.456 68.3183Z" fill="black"/>
            <path opacity="0.1" d="M137.456 54.0512C137.456 54.0512 130.931 66.019 133.951 65.174C136.97 64.329 137.456 54.0512 137.456 54.0512Z" fill="black"/>
            <path opacity="0.1" d="M206.789 66.019C206.789 66.019 202.802 70.7119 203.527 73.2723L206.789 66.019Z" fill="black"/>
            <path opacity="0.1" d="M217.199 68.3183C217.199 68.3183 211.215 73.6349 212.092 74.2406L217.199 68.3183Z" fill="black"/>
            <path opacity="0.1" d="M220.925 74.8498C220.925 74.8498 220.32 78.3459 221.288 78.4764L220.925 74.8498Z" fill="black"/>
            <path opacity="0.05" d="M155.619 148.612C154.079 150.606 154.079 154.142 153.383 155.593C153.002 156.391 152.154 157.769 151.465 158.886C151.241 158.161 150.806 157.729 150.128 158.11C149.682 154.784 148.895 149.043 148.642 147.886C148.279 146.254 152.266 141.902 152.266 141.902C152.266 141.902 156.163 142.718 157.16 144.713C158.157 146.708 157.16 146.621 155.619 148.612Z" fill="black"/>
            <path opacity="0.1" d="M135.502 106.641C131.153 107.243 123.059 118.848 123.059 118.848C123.059 118.848 121.997 117.303 120.521 115.145C118.665 112.407 116.172 108.675 114.359 105.847L124.98 94.8869L126.912 96.9686C126.912 96.9686 130.66 100.715 130.66 101.44C130.66 101.723 131.385 102.583 132.305 103.522C133.715 104.983 135.502 106.641 135.502 106.641Z" fill="black"/>
            <path opacity="0.1" d="M121.63 57.5617C121.478 57.2535 121.359 57.025 121.268 56.8836L125.951 57.1954L128.434 72.6158C126.582 68.3872 122.957 60.2055 121.63 57.5617Z" fill="black"/>
            <path opacity="0.1" d="M131.584 104.258C127.698 108.128 122.236 113.553 120.529 115.138C120.278 115.374 120.108 115.526 120.036 115.577C119.881 115.681 119.709 115.756 119.528 115.798C117.821 113.288 115.385 109.673 113.5 106.731L114.37 105.832L124.251 95.663L125.473 96.9795C125.473 96.9795 129.221 100.726 129.221 101.451C129.221 101.799 130.391 103.061 131.584 104.258Z" fill="black"/>
            <path d="M126.683 57.1954L121.246 56.8328C121.246 56.8328 119.796 60.2164 118.589 60.4594C117.382 60.7024 115.809 63.4804 115.809 63.4804C115.809 63.4804 111.155 64.329 111.358 65.7797C111.561 67.2303 104.203 77.6061 104.203 77.6061C104.203 77.6061 101.785 82.5818 103.478 86.2084C105.171 89.835 106.378 92.254 106.74 93.5813C107.103 94.9087 111.394 100.715 111.358 101.803C111.322 102.891 122.326 118.848 122.326 118.848C122.326 118.848 130.42 107.243 134.77 106.637C134.77 106.637 129.938 102.166 129.938 101.44C129.938 100.715 126.219 96.9686 126.219 96.9686L121.507 91.8913C121.507 91.8913 119.934 91.166 121.507 89.835C123.08 88.5041 118.85 85.4831 118.85 85.4831C118.85 85.4831 118.727 83.3071 120.3 82.7015C121.873 82.0958 123.925 78.1102 123.925 78.1102L129.605 75.2089L126.683 57.1954Z" fill="#464353"/>
            <path opacity="0.1" d="M105.921 81.2508C105.921 81.2508 112.445 79.9235 112.565 80.7685C112.685 81.6135 105.921 81.2508 105.921 81.2508Z" fill="black"/>
            <path opacity="0.1" d="M111.358 87.8404C111.358 87.8404 116.889 88.5657 116.646 89.748C116.404 90.9303 111.358 87.8404 111.358 87.8404Z" fill="black"/>
            <path opacity="0.1" d="M115.929 67.2883C115.929 67.2883 121.246 74.8208 121.971 73.2614L115.929 67.2883Z" fill="black"/>
            <g opacity="0.1">
            <path opacity="0.1" d="M147.881 11.1627C147.913 10.284 147.803 9.40585 147.554 8.56244C147.45 8.20573 147.37 7.8422 147.315 7.47445C147.269 8.08893 147.35 8.70637 147.554 9.28776C147.726 9.90002 147.836 10.5283 147.881 11.1627Z" fill="black"/>
            <path opacity="0.1" d="M173.301 19.1413C173.442 18.0533 174.189 17.0632 174.257 15.9499C174.268 15.7646 174.261 15.5788 174.236 15.395C174.094 16.5192 173.315 17.5166 173.272 18.6589C173.267 18.8203 173.277 18.9817 173.301 19.1413Z" fill="black"/>
            <path opacity="0.1" d="M174.094 24.3999C173.861 24.6509 173.572 24.8446 173.252 24.966C172.931 25.0874 172.587 25.1332 172.246 25.0998C171.564 25.0248 170.899 24.8386 170.278 24.5486C169.444 24.2113 168.57 23.8232 168.066 23.0979C167.606 22.4234 167.458 21.4768 166.74 21.0888C165.913 20.6463 164.927 21.2447 164.032 21.4514C162.967 21.7053 161.857 21.4079 160.824 21.0271C159.28 20.4577 157.12 19.4096 155.536 20.4904C154.304 21.3318 154.782 23.1197 154.467 24.3926C153.977 26.3655 151.879 27.6566 151.483 29.6548C151.306 30.5361 151.422 31.6132 150.708 32.1608C150.431 32.348 150.117 32.4718 149.787 32.5235C148.634 32.7774 147.214 32.8354 146.525 31.8852C146.326 31.6136 146.201 31.2949 146.162 30.9604C146.069 31.5366 146.198 32.1267 146.525 32.6105C147.228 33.5607 148.649 33.5027 149.787 33.2488C150.117 33.1972 150.431 33.0733 150.708 32.8862C151.433 32.3385 151.306 31.2614 151.483 30.3802C151.879 28.3855 153.977 27.0908 154.467 25.1179C154.782 23.845 154.304 22.0571 155.536 21.2157C157.12 20.1277 159.28 21.1831 160.824 21.7524C161.85 22.1332 162.967 22.4306 164.032 22.1768C164.946 21.9628 165.913 21.3644 166.74 21.8141C167.465 22.2021 167.606 23.1487 168.066 23.8232C168.57 24.5486 169.444 24.9547 170.278 25.2739C170.899 25.5639 171.564 25.7501 172.246 25.8251C172.587 25.8585 172.931 25.8128 173.252 25.6914C173.572 25.57 173.861 25.3762 174.094 25.1252C174.27 24.8895 174.396 24.62 174.463 24.3336C174.531 24.0473 174.538 23.7501 174.486 23.4606C174.448 23.8046 174.312 24.1306 174.094 24.3999Z" fill="black"/>
            <path opacity="0.1" d="M144.865 21.9229C144.745 21.0054 143.973 20.3272 143.574 19.4931C143.425 19.179 143.329 18.8418 143.292 18.4958C143.222 19.0852 143.32 19.6822 143.574 20.2184C143.962 21.0271 144.694 21.6944 144.847 22.5685C144.883 22.3553 144.89 22.1379 144.865 21.9229Z" fill="black"/>
            <path opacity="0.1" d="M146.88 27.5877C146.932 27.3926 146.94 27.1885 146.905 26.9899C146.869 26.7912 146.79 26.6028 146.673 26.4381C146.264 25.9702 145.485 26.0754 144.984 25.7127C144.852 25.6078 144.741 25.4774 144.66 25.3291C144.578 25.1809 144.527 25.0179 144.51 24.8496C144.43 25.4407 144.51 26.0935 144.984 26.4381C145.459 26.7826 146.264 26.71 146.673 27.1634C146.776 27.2861 146.846 27.4317 146.88 27.5877Z" fill="black"/>
            </g>
            <path d="M60.837 215.418C60.837 215.418 45.8452 214.511 47.6104 225.025C47.6104 225.025 47.248 226.881 48.9443 227.726C48.9443 227.726 48.9697 226.947 50.4812 227.211C51.0188 227.301 51.5651 227.327 52.1087 227.288C52.8443 227.237 53.5439 226.95 54.1023 226.468C54.1023 226.468 58.3178 224.724 59.9562 217.833C59.9562 217.833 61.1668 216.328 61.1197 215.944L58.5824 217.032C58.5824 217.032 59.4487 218.845 58.7673 220.375C58.7673 220.375 58.6839 217.111 58.1982 217.173C58.1003 217.191 56.8824 217.808 56.8824 217.808C56.8824 217.808 58.3722 220.988 57.2449 223.302C57.2449 223.302 57.6726 219.382 56.4148 218.036L54.6351 219.077C54.6351 219.077 56.375 222.363 55.1933 225.046C55.1933 225.046 55.4978 220.934 54.2618 219.331L52.6451 220.589C52.6451 220.589 54.2799 223.828 53.2831 226.055C53.2831 226.055 53.1526 221.264 52.2972 220.905C52.2972 220.905 50.8835 222.149 50.6697 222.66C50.6697 222.66 51.7861 225.014 51.0938 226.254C51.0938 226.254 50.6697 223.063 50.3181 223.048C50.3181 223.048 48.9117 225.162 48.7667 226.609C48.7667 226.609 48.8283 224.455 49.9774 222.845C49.1665 223 48.4184 223.388 47.8243 223.962C47.8243 223.962 48.0418 222.468 50.3253 222.337C50.3253 222.337 51.4889 220.734 51.8006 220.636C51.8006 220.636 49.5279 220.448 48.1541 221.057C48.1541 221.057 49.3648 219.65 52.2138 220.288L53.8087 218.986C53.8087 218.986 50.8219 218.58 49.5533 219.03C49.5533 219.03 51.0032 217.782 54.24 218.693L55.9726 217.655C55.9726 217.655 53.4353 217.104 51.9057 217.293C51.9057 217.293 53.5078 216.43 56.4801 217.365L57.7233 216.807C57.7233 216.807 55.8566 216.444 55.3093 216.382C54.762 216.321 54.733 216.172 54.733 216.172C55.9151 215.976 57.1282 216.112 58.2381 216.564C58.2381 216.564 60.8841 215.581 60.837 215.418Z" fill="#6C63FF"/>
            <path opacity="0.1" d="M50.5102 230.439C56.3717 230.439 61.1233 229.635 61.1233 228.644C61.1233 227.653 56.3717 226.849 50.5102 226.849C44.6487 226.849 39.8971 227.653 39.8971 228.644C39.8971 229.635 44.6487 230.439 50.5102 230.439Z" fill="#6C63FF"/>
            </g>
            <defs>
            <linearGradient id="paint0_linear" x1="172.909" y1="237.333" x2="172.909" y2="3.73178" gradientUnits="userSpaceOnUse">
            <stop stop-color="#808080" stop-opacity="0.25"/>
            <stop offset="0.54" stop-color="#808080" stop-opacity="0.12"/>
            <stop offset="1" stop-color="#808080" stop-opacity="0.1"/>
            </linearGradient>
            <clipPath id="clip0">
            <rect width="417" height="245" fill="white"/>
            </clipPath>
            </defs>
            </svg>
